<svg xmlns="http://www.w3.org/2000/svg" width="120" height="57" viewBox="0 0 120 57" fill="none"><path d="M2.22583 24.6327C2.72664 25.3421 3.35265 25.8569 4.13169 26.1907C4.91073 26.5246 5.70369 26.6916 6.52446 26.6916C6.98354 26.6916 7.45653 26.622 7.92951 26.4829C8.4025 26.3438 8.83376 26.149 9.23719 25.8708C9.62671 25.5926 9.94667 25.2726 10.1971 24.8692C10.4475 24.4796 10.5727 24.0206 10.5727 23.4919C10.5727 22.7546 10.3223 22.1843 9.83538 21.7947C9.33457 21.4052 8.72247 21.0852 7.98516 20.8209C7.24785 20.5566 6.4549 20.3062 5.57848 20.0558C4.71597 19.8193 3.90911 19.4715 3.17181 19.0403C2.4345 18.609 1.8224 18.0247 1.32159 17.3013C0.820774 16.5779 0.570369 15.5902 0.570369 14.3382C0.570369 13.7817 0.695572 13.1836 0.959889 12.5575C1.21029 11.9315 1.62764 11.3472 2.18409 10.8325C2.74055 10.3039 3.45003 9.87264 4.31254 9.52485C5.17505 9.17706 6.23232 8.99622 7.45653 8.99622C8.56944 8.99622 9.62671 9.13533 10.6422 9.42747C11.6578 9.71961 12.5481 10.3039 13.3132 11.1803L11.0735 13.1001C10.7257 12.5993 10.2388 12.1958 9.6128 11.8898C8.98678 11.5837 8.26339 11.4307 7.47044 11.4307C6.67749 11.4307 6.06538 11.5281 5.56457 11.7229C5.06376 11.9176 4.64642 12.1541 4.34037 12.4463C4.03431 12.7384 3.82564 13.0584 3.70044 13.4061C3.57524 13.7539 3.51959 14.06 3.51959 14.3521C3.51959 15.159 3.77 15.785 4.27081 16.2162C4.77162 16.6475 5.38372 16.9953 6.12103 17.2735C6.85833 17.5378 7.6652 17.7882 8.52771 18.0108C9.39021 18.2195 10.1971 18.5255 10.9344 18.9151C11.6717 19.3046 12.2838 19.8193 12.7846 20.4871C13.2854 21.1409 13.5358 22.0451 13.5358 23.1998C13.5358 24.1179 13.355 24.9526 12.9794 25.6899C12.6038 26.4272 12.1029 27.0533 11.4769 27.5541C10.8509 28.0549 10.0997 28.4444 9.23719 28.7226C8.37468 29.0009 7.45653 29.1261 6.48273 29.1261C5.18896 29.1261 3.95085 28.9035 2.78229 28.4722C1.61373 28.041 0.695571 27.3732 0 26.469L2.26756 24.6327H2.22583Z" fill="#353638"></path><path d="M15.859 9.49703H19.4064L25.0128 23.9927H25.1101L30.6469 9.49703H34.2082V28.6392H31.8154V12.9053H31.7737L25.8335 28.6392H24.2337L18.2935 12.9053H18.2379V28.6392H15.859V9.49703Z" fill="#353638"></path><path d="M43.3619 9.49703H45.5321L53.0721 28.6392H50.2898L48.5231 23.9093H40.1484L38.4095 28.6392H35.6272L43.3619 9.49703ZM47.6327 21.6417L44.3496 12.8497H44.3079L40.9692 21.6417H47.6327Z" fill="#353638"></path><path d="M54.352 9.49703H60.7512C61.9198 9.49703 62.8797 9.66396 63.6309 9.99784C64.3821 10.3317 64.9803 10.7491 65.4115 11.2638C65.8428 11.7785 66.1488 12.3489 66.3297 12.9888C66.4966 13.6287 66.5801 14.2408 66.5801 14.839C66.5801 15.4372 66.4827 16.0354 66.2741 16.6058C66.0654 17.1761 65.7732 17.6909 65.3837 18.1499C64.9942 18.609 64.5212 18.9985 63.9648 19.3185C63.4083 19.6385 62.7823 19.8332 62.1006 19.9028L67.2618 28.6392H64.1734L59.5548 20.2088H56.8143V28.6392H54.352V9.49703ZM56.8143 17.9274H60.0556C60.5286 17.9274 61.0155 17.8856 61.4746 17.8022C61.9476 17.7187 62.3649 17.5657 62.7266 17.357C63.0883 17.1344 63.3944 16.8284 63.617 16.4249C63.8396 16.0215 63.9508 15.4929 63.9508 14.839C63.9508 14.1852 63.8396 13.6705 63.617 13.2531C63.3944 12.8497 63.1022 12.5297 62.7266 12.321C62.3649 12.1124 61.9337 11.9594 61.4746 11.8759C61.0016 11.7924 60.5286 11.7507 60.0556 11.7507H56.8143V17.9274Z" fill="#353638"></path><path d="M73.9949 11.9315H68.1382V9.49703H82.3139V11.9315H76.4572V28.6392H73.9949V11.9315Z" fill="#353638"></path><path d="M0.68166 32.91H4.00649V44.6095H10.1832V47.6004H0.68166V32.91Z" fill="#353638"></path><path d="M12.5064 40.2552C12.5064 39.0866 12.715 38.0155 13.1185 37.0556C13.5219 36.0957 14.0923 35.2888 14.8157 34.6211C15.5391 33.9533 16.4016 33.4386 17.4032 33.0769C18.4048 32.7152 19.4899 32.5344 20.6724 32.5344C21.8549 32.5344 22.9399 32.7152 23.9416 33.0769C24.9432 33.4386 25.8057 33.9533 26.5291 34.6211C27.2525 35.2888 27.8229 36.1096 28.2263 37.0556C28.6297 38.0155 28.8384 39.0727 28.8384 40.2552C28.8384 41.4377 28.6297 42.4949 28.2263 43.4548C27.8229 44.4147 27.2525 45.2216 26.5291 45.8893C25.8057 46.5571 24.9432 47.0718 23.9416 47.4335C22.9399 47.7952 21.8549 47.976 20.6724 47.976C19.4899 47.976 18.4048 47.7952 17.4032 47.4335C16.4016 47.0718 15.553 46.5571 14.8157 45.8893C14.0923 45.2216 13.5219 44.4008 13.1185 43.4548C12.715 42.4949 12.5064 41.4377 12.5064 40.2552ZM15.9703 40.2552C15.9703 40.9508 16.0816 41.5768 16.3042 42.1472C16.5268 42.7175 16.8467 43.2183 17.2502 43.6357C17.6675 44.053 18.1544 44.3869 18.7387 44.6234C19.323 44.8599 19.9629 44.9712 20.6724 44.9712C21.3819 44.9712 22.0218 44.8599 22.6061 44.6234C23.1764 44.3869 23.6773 44.0669 24.0946 43.6357C24.5119 43.2183 24.818 42.7175 25.0406 42.1472C25.2632 41.5768 25.3744 40.9369 25.3744 40.2552C25.3744 39.5735 25.2632 38.9475 25.0406 38.3632C24.818 37.779 24.498 37.2782 24.0946 36.8608C23.6773 36.4435 23.1904 36.1096 22.6061 35.8731C22.0218 35.6366 21.3819 35.5253 20.6724 35.5253C19.9629 35.5253 19.323 35.6366 18.7387 35.8731C18.1683 36.1096 17.6675 36.4435 17.2502 36.8608C16.8328 37.2782 16.5268 37.779 16.3042 38.3632C16.0816 38.9475 15.9703 39.5735 15.9703 40.2552Z" fill="#353638"></path><path d="M45.713 46.5571C44.7253 47.0579 43.7097 47.4196 42.6385 47.6422C41.5674 47.8647 40.4823 47.976 39.3693 47.976C38.1869 47.976 37.1018 47.7952 36.1002 47.4335C35.0985 47.0718 34.236 46.5571 33.5126 45.8893C32.7892 45.2216 32.2189 44.4008 31.8154 43.4548C31.412 42.5089 31.2033 41.4377 31.2033 40.2691C31.2033 39.1005 31.412 38.0294 31.8154 37.0695C32.2189 36.1096 32.7892 35.3027 33.5126 34.635C34.236 33.9672 35.0985 33.4525 36.1002 33.0908C37.1018 32.7291 38.1869 32.5483 39.3693 32.5483C40.5518 32.5483 41.6926 32.6874 42.7081 32.9795C43.7236 33.2577 44.614 33.7447 45.393 34.4402L43.042 36.9304C42.5829 36.4713 42.0682 36.1235 41.4978 35.887C40.9274 35.6505 40.2179 35.5392 39.3554 35.5392C38.646 35.5392 38.006 35.6505 37.4217 35.887C36.8375 36.1235 36.3506 36.4435 35.9332 36.8747C35.5159 37.2921 35.1959 37.7929 34.9872 38.3772C34.7647 38.9614 34.6534 39.5875 34.6534 40.2691C34.6534 40.9508 34.7647 41.5907 34.9872 42.1611C35.2098 42.7314 35.5298 43.2322 35.9332 43.6496C36.3506 44.0669 36.8375 44.4008 37.4217 44.6373C37.9921 44.8738 38.646 44.9851 39.3554 44.9851C40.0649 44.9851 40.7048 44.9016 41.2335 44.7486C41.7621 44.5956 42.1795 44.4286 42.4994 44.2617V41.8828H39.7867V38.8919H45.6991V46.571L45.713 46.5571Z" fill="#353638"></path><path d="M53.6007 32.91H50.2759V47.5865H53.6007V32.91Z" fill="#353638"></path><path d="M65.7732 36.4991C65.5089 36.1652 65.1333 35.9287 64.6742 35.7618C64.2152 35.6088 63.77 35.5253 63.3666 35.5253C63.1301 35.5253 62.8797 35.5531 62.6154 35.6088C62.3649 35.6644 62.1145 35.7479 61.892 35.8731C61.6694 35.9983 61.4746 36.1513 61.3355 36.3461C61.1964 36.5408 61.1268 36.7773 61.1268 37.0556C61.1268 37.5007 61.2938 37.8346 61.6415 38.0711C61.9893 38.3076 62.4206 38.5024 62.9353 38.6693C63.45 38.8362 64.0204 39.0032 64.6186 39.1701C65.2168 39.337 65.7732 39.5735 66.3019 39.8796C66.8166 40.1856 67.2478 40.5891 67.5956 41.1038C67.9434 41.6185 68.1104 42.3002 68.1104 43.1627C68.1104 44.0252 67.9573 44.6929 67.6374 45.305C67.3313 45.9172 66.9001 46.418 66.3714 46.8214C65.8428 47.2248 65.2168 47.517 64.5073 47.7117C63.7978 47.9065 63.0605 48.0039 62.2815 48.0039C61.2938 48.0039 60.3895 47.8508 59.5409 47.5726C58.7062 47.2805 57.9133 46.8075 57.1899 46.1676L59.5548 43.6357C59.9026 44.0808 60.3339 44.4147 60.8486 44.6651C61.3633 44.9155 61.9059 45.0268 62.4623 45.0268C62.7266 45.0268 63.0049 44.999 63.2831 44.9294C63.5613 44.8738 63.8117 44.7764 64.0343 44.6512C64.2569 44.526 64.4377 44.373 64.563 44.1782C64.7021 43.9835 64.7716 43.7609 64.7716 43.4966C64.7716 43.0514 64.6047 42.7036 64.243 42.4532C63.8952 42.2028 63.45 41.9802 62.9353 41.7994C62.4067 41.6185 61.8363 41.4377 61.2242 41.2568C60.6121 41.076 60.0417 40.8395 59.5131 40.5334C58.9845 40.2274 58.5532 39.8239 58.2054 39.337C57.8576 38.8362 57.6768 38.1824 57.6768 37.3616C57.6768 36.5408 57.8298 35.887 58.1637 35.2888C58.4837 34.6906 58.9149 34.1898 59.4435 33.8003C59.9722 33.3969 60.5982 33.1047 61.2938 32.8961C61.9893 32.7013 62.7127 32.59 63.45 32.59C64.2986 32.59 65.1333 32.7152 65.9263 32.9378C66.7192 33.1743 67.4426 33.5638 68.0825 34.1203L65.8011 36.5408L65.7732 36.4991Z" fill="#353638"></path><path d="M74.9131 35.7757H70.6005V32.91H82.5643V35.7757H78.2518V47.6004H74.9131V35.7757Z" fill="#353638"></path><path d="M89.214 32.91H85.8753V47.5865H89.214V32.91Z" fill="#353638"></path><path d="M103.793 36.7356C103.459 36.3461 103.07 36.0539 102.583 35.8453C102.11 35.6366 101.553 35.5392 100.927 35.5392C100.301 35.5392 99.7171 35.6505 99.1885 35.887C98.6599 36.1235 98.1869 36.4574 97.7974 36.8747C97.4078 37.2921 97.1018 37.7929 96.8792 38.3772C96.6566 38.9614 96.5453 39.5875 96.5453 40.2691C96.5453 40.9508 96.6566 41.5907 96.8792 42.1611C97.1018 42.7314 97.4078 43.2322 97.7834 43.6496C98.173 44.0669 98.6181 44.4008 99.1329 44.6373C99.6476 44.8738 100.218 44.9851 100.816 44.9851C101.498 44.9851 102.11 44.846 102.639 44.5677C103.167 44.2895 103.598 43.9 103.946 43.3992L106.715 45.4163C106.075 46.2928 105.268 46.9327 104.28 47.35C103.292 47.7674 102.291 47.976 101.247 47.976C100.065 47.976 98.9798 47.7952 97.9782 47.4335C96.9766 47.0718 96.1141 46.5571 95.3907 45.8893C94.6673 45.2216 94.0969 44.4008 93.6935 43.4548C93.29 42.4949 93.0814 41.4377 93.0814 40.2552C93.0814 39.0727 93.29 38.0155 93.6935 37.0695C94.0969 36.1096 94.6673 35.3027 95.3907 34.635C96.1141 33.9672 96.9766 33.4525 97.9782 33.0908C98.9798 32.7291 100.065 32.5483 101.247 32.5483C101.679 32.5483 102.124 32.59 102.583 32.6596C103.042 32.7291 103.501 32.8543 103.946 33.0213C104.391 33.1882 104.823 33.4108 105.24 33.689C105.657 33.9672 106.019 34.3011 106.353 34.7045L103.793 36.7356Z" fill="#353638"></path><path d="M117.677 36.4991C117.412 36.1652 117.037 35.9287 116.578 35.7618C116.119 35.6088 115.674 35.5253 115.27 35.5253C115.034 35.5253 114.783 35.5531 114.519 35.6088C114.268 35.6644 114.018 35.7479 113.796 35.8731C113.573 35.9983 113.378 36.1513 113.239 36.3461C113.1 36.5408 113.03 36.7773 113.03 37.0556C113.03 37.5007 113.197 37.8346 113.545 38.0711C113.893 38.3076 114.31 38.5024 114.839 38.6693C115.354 38.8362 115.91 39.0032 116.522 39.1701C117.12 39.337 117.677 39.5735 118.192 39.8796C118.706 40.1856 119.137 40.5891 119.485 41.1038C119.833 41.6185 120 42.3002 120 43.1627C120 44.0252 119.847 44.6929 119.527 45.305C119.207 45.9172 118.79 46.418 118.261 46.8214C117.732 47.2248 117.106 47.517 116.397 47.7117C115.687 47.9065 114.95 48.0039 114.171 48.0039C113.183 48.0039 112.279 47.8508 111.444 47.5726C110.61 47.2805 109.817 46.8075 109.093 46.1676L111.458 43.6357C111.806 44.0808 112.237 44.4147 112.752 44.6651C113.267 44.9016 113.809 45.0268 114.366 45.0268C114.644 45.0268 114.908 44.999 115.187 44.9294C115.465 44.8738 115.715 44.7764 115.938 44.6512C116.16 44.526 116.341 44.373 116.466 44.1782C116.606 43.9835 116.675 43.7609 116.675 43.4966C116.675 43.0514 116.508 42.7036 116.147 42.4532C115.799 42.2028 115.354 41.9802 114.839 41.7994C114.31 41.6185 113.74 41.4377 113.128 41.2568C112.516 41.076 111.945 40.8395 111.417 40.5334C110.888 40.2274 110.457 39.8239 110.109 39.337C109.761 38.8362 109.58 38.1824 109.58 37.3616C109.58 36.5408 109.747 35.887 110.067 35.2888C110.387 34.6906 110.818 34.1898 111.347 33.8003C111.876 33.3969 112.502 33.1047 113.197 32.8961C113.893 32.7013 114.616 32.59 115.354 32.59C116.202 32.59 117.037 32.7152 117.83 32.9378C118.623 33.1604 119.346 33.5638 119.986 34.1203L117.705 36.5408L117.677 36.4991Z" fill="#353638"></path><path d="M110.234 23.8119V28.8617H112.488V25.0639L110.234 23.8119Z" fill="#ED2031"></path><path d="M96.2671 15.9658V22.4138V28.8617H98.5068V17.2179L96.2671 15.9658Z" fill="#ED2031"></path><path d="M105.574 21.1965V28.8617H107.827V22.4486L105.574 21.1965Z" fill="#ED2031"></path><path d="M100.914 18.5812V28.8617H103.167V19.8332L100.914 18.5812Z" fill="#ED2031"></path><path d="M91.1059 13.0584V28.8617H93.8465V14.6025L91.1059 13.0584Z" fill="#ED2031"></path><path d="M85.8613 10.123V28.8617H88.6854V11.7089L85.8613 10.123Z" fill="#ED2031"></path><path d="M119.221 28.8617L114.895 26.4272V28.8617H119.221Z" fill="#ED2031"></path></svg>